<?xml version="1.0" encoding="UTF-8"?><svg xmlns="http://www.w3.org/2000/svg" width="1600" height="1600" viewBox="0 0 1600 1600" role="img" aria-label="360 Concept Dr. Qali logo"><rect width="100%" height="100%" fill="#FFFFFF"/><path d="M 640 1161 L 635 1164 L 632 1169 L 632 1179 L 640 1187 L 650 1187 L 656 1182 L 658 1178 L 658 1170 L 652 1162 L 646 1160 Z M 620 1086 L 612 1084 L 600 1086 L 593 1090 L 585 1098 L 581 1104 L 580 1103 L 580 1088 L 579 1087 L 560 1087 L 560 1186 L 580 1186 L 580 1138 L 581 1137 L 582 1127 L 587 1117 L 596 1109 L 601 1107 L 620 1108 Z M 1120 1047 L 1120 1186 L 1141 1186 L 1141 1047 Z M 1003 1047 L 1003 1186 L 1089 1186 L 1089 1167 L 1026 1167 L 1024 1165 L 1024 1047 Z M 894 1047 L 840 1186 L 862 1186 L 863 1185 L 869 1167 L 878 1146 L 934 1146 L 937 1151 L 950 1186 L 973 1186 L 919 1047 Z M 906 1073 L 909 1077 L 916 1098 L 926 1122 L 925 1125 L 887 1125 L 886 1124 L 895 1099 L 901 1086 L 902 1081 Z M 409 1047 L 409 1186 L 473 1186 L 489 1182 L 503 1174 L 513 1164 L 519 1155 L 525 1139 L 527 1129 L 527 1103 L 526 1102 L 526 1097 L 523 1086 L 516 1072 L 505 1060 L 491 1052 L 482 1049 L 470 1048 L 469 1047 Z M 432 1066 L 460 1066 L 476 1069 L 490 1077 L 498 1086 L 501 1092 L 505 1107 L 504 1133 L 502 1140 L 496 1151 L 485 1161 L 479 1164 L 467 1167 L 432 1167 L 430 1165 L 430 1068 Z M 718 1052 L 707 1059 L 696 1070 L 691 1077 L 684 1092 L 681 1105 L 681 1129 L 683 1138 L 689 1153 L 694 1161 L 703 1171 L 712 1178 L 721 1183 L 726 1184 L 729 1186 L 744 1189 L 760 1189 L 770 1187 L 783 1182 L 802 1204 L 806 1203 L 818 1193 L 818 1191 L 801 1172 L 801 1170 L 807 1164 L 814 1154 L 820 1140 L 823 1126 L 822 1101 L 815 1081 L 810 1073 L 799 1061 L 784 1051 L 765 1045 L 749 1044 L 748 1045 L 734 1046 Z M 748 1064 L 756 1064 L 757 1065 L 767 1066 L 782 1074 L 793 1086 L 799 1099 L 801 1108 L 800 1131 L 793 1147 L 787 1154 L 781 1149 L 765 1130 L 750 1142 L 768 1164 L 764 1167 L 757 1169 L 740 1168 L 731 1165 L 720 1158 L 708 1143 L 705 1136 L 703 1128 L 703 1120 L 702 1119 L 703 1105 L 705 1101 L 705 1098 L 713 1083 L 726 1071 L 737 1066 L 747 1065 Z M 842 765 L 842 777 L 869 777 L 870 778 L 870 869 L 884 869 L 884 778 L 885 777 L 913 777 L 913 765 Z M 805 767 L 797 765 L 749 765 L 750 767 L 749 768 L 749 869 L 763 869 L 763 835 L 764 834 L 793 834 L 804 831 L 810 827 L 819 816 L 823 804 L 822 788 L 817 777 L 810 770 Z M 763 778 L 764 777 L 793 777 L 803 782 L 808 788 L 811 795 L 811 803 L 807 812 L 800 819 L 792 822 L 764 822 L 763 821 Z M 659 765 L 659 869 L 724 869 L 724 857 L 673 857 L 672 856 L 672 822 L 674 820 L 712 820 L 712 809 L 674 809 L 672 807 L 672 778 L 673 777 L 724 777 L 724 765 Z M 606 766 L 597 769 L 588 774 L 580 781 L 574 789 L 570 797 L 567 808 L 567 826 L 569 834 L 574 845 L 579 852 L 592 863 L 598 866 L 609 869 L 633 869 L 633 857 L 612 857 L 600 852 L 587 839 L 581 825 L 581 817 L 580 816 L 581 815 L 582 804 L 585 797 L 594 786 L 601 781 L 612 777 L 633 777 L 633 765 Z M 467 765 L 467 869 L 480 869 L 480 790 L 481 789 L 483 790 L 527 868 L 528 869 L 545 869 L 545 765 L 531 765 L 531 845 L 530 846 L 485 767 L 483 765 Z M 296 767 L 288 770 L 280 775 L 270 785 L 266 791 L 260 809 L 260 824 L 262 833 L 266 843 L 274 854 L 282 861 L 289 865 L 303 869 L 326 869 L 326 857 L 305 857 L 293 852 L 281 840 L 275 827 L 274 809 L 276 802 L 280 794 L 290 784 L 305 777 L 326 777 L 326 769 L 327 768 L 326 765 L 305 765 Z M 384 764 L 373 767 L 361 774 L 348 788 L 341 805 L 341 810 L 340 811 L 341 829 L 343 836 L 348 846 L 354 854 L 362 861 L 373 867 L 383 870 L 402 870 L 412 867 L 423 861 L 431 854 L 437 846 L 442 836 L 444 829 L 444 824 L 445 823 L 444 805 L 437 788 L 424 774 L 409 766 L 401 764 Z M 385 776 L 400 776 L 407 778 L 414 782 L 425 794 L 431 809 L 430 829 L 424 842 L 419 848 L 411 854 L 405 857 L 395 859 L 380 857 L 372 853 L 366 848 L 359 839 L 354 824 L 354 810 L 356 802 L 360 794 L 371 782 L 378 778 Z M 703 467 L 604 467 L 603 468 L 589 468 L 588 469 L 574 470 L 547 477 L 528 486 L 517 494 L 506 505 L 498 516 L 491 530 L 486 545 L 483 558 L 482 572 L 481 573 L 480 603 L 481 604 L 481 618 L 482 619 L 483 633 L 489 656 L 495 670 L 502 681 L 516 696 L 529 705 L 537 709 L 557 716 L 572 719 L 578 719 L 579 720 L 589 720 L 590 721 L 622 721 L 623 720 L 634 720 L 635 719 L 647 718 L 672 711 L 690 701 L 703 689 L 711 676 L 716 660 L 717 631 L 716 630 L 715 620 L 709 605 L 705 599 L 692 587 L 685 583 L 671 578 L 657 575 L 650 575 L 649 574 L 541 574 L 540 573 L 542 552 L 548 536 L 552 530 L 560 522 L 572 515 L 585 511 L 598 510 L 599 509 L 703 509 Z M 540 617 L 542 615 L 632 615 L 644 618 L 653 625 L 658 635 L 659 653 L 657 660 L 653 667 L 649 671 L 640 676 L 629 679 L 595 680 L 575 676 L 560 668 L 549 656 L 545 648 L 542 638 L 541 627 L 540 626 Z M 253 467 L 253 509 L 365 509 L 366 510 L 371 510 L 378 512 L 387 517 L 394 526 L 396 533 L 396 548 L 393 556 L 386 564 L 376 569 L 366 571 L 273 571 L 273 613 L 365 613 L 366 614 L 372 614 L 385 619 L 392 625 L 396 632 L 398 641 L 397 654 L 393 663 L 384 671 L 368 676 L 253 676 L 253 718 L 389 718 L 390 717 L 404 716 L 417 712 L 435 702 L 443 694 L 449 685 L 454 672 L 455 661 L 456 660 L 455 636 L 451 622 L 448 616 L 443 609 L 435 601 L 422 593 L 444 571 L 450 561 L 455 546 L 456 529 L 455 528 L 454 514 L 451 504 L 442 489 L 433 481 L 422 475 L 414 472 L 394 468 L 383 468 L 382 467 Z M 795 475 L 776 486 L 760 501 L 753 511 L 746 525 L 739 547 L 737 564 L 736 565 L 736 573 L 735 574 L 736 621 L 742 650 L 752 673 L 762 687 L 770 695 L 784 705 L 799 712 L 825 719 L 839 720 L 840 721 L 880 721 L 881 720 L 889 720 L 909 716 L 926 710 L 936 705 L 951 694 L 958 687 L 966 676 L 975 658 L 979 646 L 983 627 L 984 610 L 985 609 L 985 577 L 984 576 L 983 559 L 977 533 L 965 508 L 959 500 L 948 489 L 938 482 L 920 473 L 898 467 L 893 467 L 886 465 L 875 465 L 874 464 L 847 464 L 846 465 L 835 465 L 834 466 L 817 468 Z M 845 505 L 856 505 L 857 504 L 875 505 L 890 509 L 903 516 L 915 528 L 920 536 L 924 545 L 928 559 L 929 571 L 930 572 L 930 586 L 931 587 L 930 614 L 929 615 L 927 631 L 921 648 L 914 659 L 901 671 L 889 677 L 878 680 L 848 681 L 847 680 L 837 679 L 822 673 L 816 669 L 805 658 L 797 644 L 791 622 L 790 605 L 789 604 L 789 582 L 790 581 L 791 563 L 797 542 L 804 529 L 814 518 L 827 510 Z M 1042 393 L 1031 396 L 1023 400 L 1014 407 L 1009 413 L 1001 430 L 1000 451 L 1005 466 L 1012 476 L 1021 484 L 1036 491 L 1058 492 L 1073 487 L 1083 480 L 1090 472 L 1095 464 L 1099 451 L 1099 435 L 1096 424 L 1092 416 L 1079 402 L 1062 394 Z M 1046 417 L 1053 417 L 1063 421 L 1071 429 L 1075 439 L 1075 446 L 1072 455 L 1065 463 L 1054 468 L 1045 468 L 1034 463 L 1027 455 L 1024 446 L 1024 439 L 1028 429 L 1033 423 Z" fill="#000000" fill-rule="evenodd"/><path d="M 1038 274 L 1035 274 L 1030 280 L 1028 286 L 1029 291 L 1044 297 L 1046 299 L 1056 303 L 1082 317 L 1133 350 L 1159 370 L 1182 390 L 1226 435 L 1243 455 L 1261 479 L 1281 509 L 1300 542 L 1312 566 L 1329 606 L 1347 662 L 1358 713 L 1359 726 L 1361 733 L 1361 741 L 1362 742 L 1362 750 L 1363 751 L 1364 777 L 1365 778 L 1365 834 L 1364 835 L 1364 850 L 1363 851 L 1363 861 L 1362 862 L 1360 886 L 1350 938 L 1348 942 L 1347 950 L 1338 977 L 1338 980 L 1320 1028 L 1304 1062 L 1295 1077 L 1295 1079 L 1265 1127 L 1245 1154 L 1224 1179 L 1187 1217 L 1146 1252 L 1103 1282 L 1065 1304 L 1016 1327 L 981 1339 L 978 1341 L 975 1341 L 944 1351 L 940 1351 L 927 1355 L 913 1357 L 908 1359 L 897 1360 L 891 1362 L 885 1362 L 870 1365 L 852 1366 L 851 1367 L 837 1367 L 836 1368 L 770 1368 L 769 1367 L 755 1367 L 754 1366 L 736 1365 L 735 1364 L 721 1363 L 720 1362 L 697 1359 L 637 1344 L 594 1329 L 564 1315 L 562 1315 L 560 1313 L 558 1313 L 522 1294 L 480 1267 L 473 1268 L 467 1274 L 465 1278 L 465 1285 L 473 1291 L 524 1322 L 569 1344 L 605 1358 L 622 1363 L 625 1365 L 632 1366 L 649 1372 L 669 1376 L 673 1378 L 678 1378 L 693 1382 L 698 1382 L 717 1386 L 731 1387 L 732 1388 L 750 1389 L 751 1390 L 764 1390 L 765 1391 L 782 1391 L 783 1392 L 840 1391 L 841 1390 L 853 1390 L 854 1389 L 872 1388 L 873 1387 L 900 1384 L 930 1378 L 965 1369 L 1020 1350 L 1072 1326 L 1120 1298 L 1142 1283 L 1173 1259 L 1216 1220 L 1232 1203 L 1232 1201 L 1243 1191 L 1279 1145 L 1310 1096 L 1340 1035 L 1360 980 L 1370 943 L 1379 897 L 1381 876 L 1382 875 L 1383 856 L 1384 855 L 1384 839 L 1385 838 L 1385 778 L 1384 777 L 1384 761 L 1383 760 L 1380 726 L 1370 673 L 1362 643 L 1353 615 L 1351 612 L 1351 609 L 1329 557 L 1301 505 L 1287 483 L 1264 451 L 1262 450 L 1252 436 L 1231 412 L 1189 371 L 1185 369 L 1181 364 L 1136 329 L 1088 299 Z" fill="#ED1C24" fill-rule="evenodd"/><path d="M 194 393 L 170 431 L 168 437 L 166 438 L 155 457 L 126 517 L 127 522 L 131 526 L 138 530 L 149 532 L 160 506 L 176 474 L 194 442 L 217 406 L 244 369 L 246 368 L 253 359 L 255 354 L 263 347 L 265 343 L 269 340 L 288 318 L 313 293 L 344 265 L 375 240 L 407 217 L 416 212 L 418 209 L 424 207 L 442 195 L 482 173 L 527 152 L 532 151 L 555 141 L 583 132 L 585 130 L 589 130 L 606 124 L 654 112 L 674 108 L 680 108 L 686 106 L 691 106 L 692 105 L 728 101 L 729 100 L 768 98 L 769 97 L 836 97 L 837 98 L 853 98 L 854 99 L 866 99 L 867 100 L 893 102 L 894 103 L 914 105 L 937 110 L 942 110 L 947 112 L 969 116 L 977 119 L 981 119 L 985 121 L 1006 126 L 1031 135 L 1034 135 L 1056 144 L 1065 146 L 1069 149 L 1092 158 L 1116 170 L 1119 170 L 1122 173 L 1135 179 L 1175 202 L 1210 225 L 1220 233 L 1222 233 L 1224 236 L 1263 266 L 1282 284 L 1290 290 L 1324 325 L 1332 335 L 1336 337 L 1336 339 L 1363 371 L 1371 383 L 1375 386 L 1375 388 L 1401 425 L 1429 473 L 1445 505 L 1463 547 L 1484 609 L 1485 616 L 1492 639 L 1492 643 L 1495 652 L 1499 672 L 1499 677 L 1501 682 L 1506 722 L 1507 723 L 1509 754 L 1510 755 L 1510 771 L 1511 772 L 1510 855 L 1509 856 L 1509 867 L 1508 868 L 1506 895 L 1505 896 L 1505 903 L 1504 904 L 1501 928 L 1495 958 L 1493 963 L 1493 967 L 1480 1015 L 1471 1042 L 1452 1090 L 1417 1159 L 1400 1187 L 1386 1208 L 1375 1222 L 1374 1225 L 1378 1233 L 1381 1234 L 1385 1239 L 1390 1241 L 1396 1241 L 1409 1224 L 1442 1171 L 1465 1127 L 1465 1125 L 1479 1096 L 1495 1055 L 1504 1028 L 1504 1025 L 1513 997 L 1522 959 L 1525 939 L 1527 933 L 1530 908 L 1531 907 L 1531 900 L 1532 899 L 1534 871 L 1535 870 L 1535 859 L 1536 858 L 1536 839 L 1537 838 L 1536 758 L 1535 757 L 1535 746 L 1534 745 L 1532 717 L 1531 716 L 1526 678 L 1511 612 L 1504 591 L 1504 588 L 1501 582 L 1501 579 L 1486 537 L 1470 500 L 1457 475 L 1457 473 L 1439 440 L 1420 409 L 1398 377 L 1395 375 L 1395 373 L 1384 358 L 1362 331 L 1350 319 L 1348 315 L 1310 276 L 1272 242 L 1219 202 L 1163 167 L 1133 152 L 1131 150 L 1099 135 L 1060 119 L 1028 108 L 1026 109 L 1024 107 L 1012 103 L 953 88 L 933 84 L 927 84 L 921 82 L 916 82 L 915 81 L 894 79 L 893 78 L 865 76 L 864 75 L 852 75 L 851 74 L 835 74 L 834 73 L 769 73 L 768 74 L 738 75 L 728 77 L 710 78 L 709 79 L 703 79 L 702 80 L 696 80 L 695 81 L 689 81 L 665 86 L 660 86 L 588 104 L 523 127 L 457 158 L 401 191 L 349 228 L 302 268 L 262 308 L 240 333 L 240 335 L 234 340 L 218 360 Z" fill="#087A08" fill-rule="evenodd"/><path d="M 714 153 L 713 154 L 707 154 L 706 155 L 677 159 L 667 162 L 662 162 L 599 179 L 573 188 L 535 204 L 535 209 L 538 217 L 543 222 L 549 223 L 571 213 L 620 196 L 627 195 L 649 188 L 658 187 L 662 185 L 692 179 L 704 178 L 718 175 L 725 175 L 726 174 L 733 174 L 734 173 L 744 173 L 745 172 L 755 172 L 756 171 L 771 171 L 772 170 L 850 171 L 851 172 L 864 172 L 865 173 L 888 175 L 889 176 L 924 181 L 929 183 L 934 183 L 948 187 L 952 187 L 956 189 L 978 194 L 985 197 L 992 198 L 995 200 L 1001 201 L 1004 203 L 1024 209 L 1039 216 L 1042 216 L 1078 233 L 1080 233 L 1084 236 L 1096 241 L 1105 247 L 1109 248 L 1149 272 L 1185 297 L 1226 331 L 1267 371 L 1284 390 L 1310 422 L 1330 450 L 1345 473 L 1369 516 L 1369 518 L 1372 522 L 1383 545 L 1385 552 L 1390 561 L 1391 566 L 1399 584 L 1409 613 L 1411 622 L 1413 625 L 1413 629 L 1418 644 L 1418 648 L 1420 652 L 1422 664 L 1425 673 L 1426 683 L 1431 705 L 1432 718 L 1433 719 L 1435 744 L 1436 745 L 1437 771 L 1438 772 L 1438 840 L 1437 841 L 1437 856 L 1436 857 L 1435 875 L 1434 876 L 1431 906 L 1429 911 L 1428 923 L 1421 951 L 1421 955 L 1403 1016 L 1383 1066 L 1377 1077 L 1377 1079 L 1375 1081 L 1374 1085 L 1372 1087 L 1372 1089 L 1370 1091 L 1369 1095 L 1366 1099 L 1366 1101 L 1352 1126 L 1319 1177 L 1286 1219 L 1284 1220 L 1268 1239 L 1237 1270 L 1205 1298 L 1164 1329 L 1133 1349 L 1100 1368 L 1094 1370 L 1092 1372 L 1065 1385 L 1024 1402 L 998 1411 L 995 1411 L 978 1417 L 964 1420 L 960 1422 L 956 1422 L 948 1425 L 934 1427 L 919 1431 L 913 1431 L 908 1433 L 884 1436 L 883 1438 L 884 1454 L 889 1462 L 892 1463 L 893 1462 L 899 1462 L 923 1457 L 928 1457 L 964 1448 L 968 1448 L 1026 1430 L 1075 1410 L 1130 1382 L 1145 1372 L 1150 1370 L 1153 1367 L 1166 1360 L 1189 1344 L 1239 1304 L 1288 1256 L 1322 1216 L 1340 1192 L 1341 1189 L 1347 1182 L 1348 1179 L 1364 1156 L 1396 1098 L 1419 1045 L 1430 1011 L 1432 1008 L 1433 1001 L 1439 984 L 1453 922 L 1457 889 L 1458 888 L 1460 857 L 1461 856 L 1462 777 L 1461 776 L 1460 748 L 1459 747 L 1459 737 L 1458 736 L 1456 713 L 1454 707 L 1452 689 L 1448 674 L 1448 669 L 1444 656 L 1444 652 L 1442 648 L 1442 644 L 1440 640 L 1440 636 L 1437 629 L 1436 622 L 1424 585 L 1401 529 L 1371 472 L 1339 423 L 1313 389 L 1294 367 L 1254 326 L 1227 302 L 1202 282 L 1148 245 L 1115 226 L 1113 226 L 1081 209 L 1028 187 L 978 171 L 974 171 L 970 169 L 946 163 L 932 161 L 928 159 L 921 159 L 904 155 L 897 155 L 896 154 L 881 153 L 880 152 L 873 152 L 864 150 L 853 150 L 852 149 L 838 149 L 837 148 L 769 148 L 768 149 L 753 149 L 752 150 L 741 150 L 740 151 Z" fill="#BFBFBF" fill-rule="evenodd"/></svg>